<?xml version="1.0" encoding="UTF-8"?>
<mxfile host="fmdtools" version="1.0">
  <diagram id="graph" name="Graph">
    <mxGraphModel dx="1650.0" dy="1649.9999999999998" grid="1" gridSize="10" guides="1" tooltips="1" connect="1" arrows="1" fold="1" page="1" pageScale="1" pageWidth="1700.0" pageHeight="1699.9999999999998" math="0" shadow="0">
      <root>
        <mxCell id="0"/>
        <mxCell id="1" parent="0"/>
        <mxCell id="exfxnarch.flows.exf" value="exfxnarch.flows.exf" style="ellipse;whiteSpace=wrap;html=1;fillColor=#90EE90;strokeColor=#228B22;fontSize=12;fontStyle=normal" vertex="1" parent="1">
          <mxGeometry x="825.1760718619918" y="824.3867922215718" width="80" height="40" as="geometry"/>
        </mxCell>
        <mxCell id="exfxnarch.fxns.ex_fxn" value="exfxnarch.fxns.ex_fxn" style="rounded=0;whiteSpace=wrap;html=1;fillColor=#cce5ff;strokeColor=#6699cc;fontSize=12;fontStyle=normal" vertex="1" parent="1">
          <mxGeometry x="200.0" y="200.0" width="80" height="40" as="geometry"/>
        </mxCell>
        <mxCell id="exfxnarch.fxns.ex_fxn2" value="exfxnarch.fxns.ex_fxn2" style="rounded=0;whiteSpace=wrap;html=1;fillColor=#cce5ff;strokeColor=#6699cc;fontSize=12;fontStyle=normal" vertex="1" parent="1">
          <mxGeometry x="1450.0" y="1449.9999999999998" width="80" height="40" as="geometry"/>
        </mxCell>
        <mxCell id="edge_exfxnarch.fxns.ex_fxn_exfxnarch.flows.exf" style="strokeWidth=1;strokeColor=black;startArrow=diamondThin;endArrow=none" edge="1" parent="1" source="exfxnarch.fxns.ex_fxn" target="exfxnarch.flows.exf">
          <mxGeometry relative="1" as="geometry"/>
        </mxCell>
        <mxCell id="edge_exfxnarch.fxns.ex_fxn2_exfxnarch.flows.exf" style="strokeWidth=1;strokeColor=black;startArrow=diamondThin;endArrow=none" edge="1" parent="1" source="exfxnarch.fxns.ex_fxn2" target="exfxnarch.flows.exf">
          <mxGeometry relative="1" as="geometry"/>
        </mxCell>
      </root>
    </mxGraphModel>
  </diagram>
</mxfile>